<svg width="126" height="49" viewBox="0 0 126 49" fill="none" xmlns="http://www.w3.org/2000/svg">
<path d="M10 32.5V16.5C10 15.4 10.975 14.5 12.1667 14.5H20.8333C22.025 14.5 23 15.4 23 16.5V32.5C23 33.6 22.025 34.5 20.8333 34.5H12.1667C10.975 34.5 10 33.6 10 32.5Z" fill="#0500FF" fill-opacity="0.75"/>
<path d="M20.8333 16H12.1667C11.8417 16 11.625 16.2 11.625 16.5V31C11.625 31.3 11.8417 31.5 12.1667 31.5H20.8333C21.1583 31.5 21.375 31.3 21.375 31V16.5C21.375 16.2 21.1583 16 20.8333 16Z" fill="white"/>
<path d="M14.875 32.5H18.125V33.5H14.875V32.5Z" fill="white"/>
<path d="M34.321 33V15.5455H41.5312C42.8381 15.5455 43.9659 15.8011 44.9148 16.3125C45.8693 16.8182 46.6051 17.5256 47.1222 18.4347C47.6392 19.3381 47.8977 20.3892 47.8977 21.5881C47.8977 22.7926 47.6335 23.8466 47.1051 24.75C46.5824 25.6477 45.8352 26.3437 44.8636 26.8381C43.892 27.3324 42.7386 27.5795 41.4034 27.5795H36.9545V24.2557H40.6193C41.2557 24.2557 41.7869 24.1449 42.2131 23.9233C42.6449 23.7017 42.9716 23.392 43.1932 22.9943C43.4148 22.5909 43.5256 22.1222 43.5256 21.5881C43.5256 21.0483 43.4148 20.5824 43.1932 20.1903C42.9716 19.7926 42.6449 19.4858 42.2131 19.2699C41.7813 19.054 41.25 18.946 40.6193 18.946H38.5398V33H34.321ZM54.1449 25.5341V33H49.9773V15.5455H54.0085V22.3125H54.1534C54.4489 21.5057 54.9318 20.875 55.6023 20.4205C56.2784 19.9659 57.1051 19.7386 58.0824 19.7386C59.0028 19.7386 59.804 19.9432 60.4858 20.3523C61.1676 20.7557 61.696 21.3267 62.071 22.0653C62.4517 22.804 62.6392 23.6676 62.6335 24.6562V33H58.4659V25.4744C58.4716 24.7472 58.2898 24.179 57.9205 23.7699C57.5511 23.3608 57.0313 23.1562 56.3608 23.1562C55.9233 23.1562 55.5369 23.2528 55.2017 23.446C54.8722 23.6335 54.6136 23.9034 54.4261 24.2557C54.2443 24.608 54.1506 25.0341 54.1449 25.5341ZM71.3459 33.2472C69.9709 33.2472 68.7891 32.9659 67.8004 32.4034C66.8175 31.8352 66.0589 31.0455 65.5249 30.0341C64.9964 29.017 64.7322 27.8381 64.7322 26.4972C64.7322 25.1506 64.9964 23.9716 65.5249 22.9602C66.0589 21.9432 66.8175 21.1534 67.8004 20.5909C68.7891 20.0227 69.9709 19.7386 71.3459 19.7386C72.7209 19.7386 73.8999 20.0227 74.8828 20.5909C75.8714 21.1534 76.63 21.9432 77.1584 22.9602C77.6925 23.9716 77.9595 25.1506 77.9595 26.4972C77.9595 27.8381 77.6925 29.017 77.1584 30.0341C76.63 31.0455 75.8714 31.8352 74.8828 32.4034C73.8999 32.9659 72.7209 33.2472 71.3459 33.2472ZM71.3714 30.1023C71.8714 30.1023 72.2947 29.9489 72.6413 29.642C72.9879 29.3352 73.2521 28.9091 73.4339 28.3636C73.6214 27.8182 73.7152 27.1875 73.7152 26.4716C73.7152 25.7443 73.6214 25.108 73.4339 24.5625C73.2521 24.017 72.9879 23.5909 72.6413 23.2841C72.2947 22.9773 71.8714 22.8239 71.3714 22.8239C70.8544 22.8239 70.4169 22.9773 70.0589 23.2841C69.7067 23.5909 69.4368 24.017 69.2493 24.5625C69.0675 25.108 68.9766 25.7443 68.9766 26.4716C68.9766 27.1875 69.0675 27.8182 69.2493 28.3636C69.4368 28.9091 69.7067 29.3352 70.0589 29.642C70.4169 29.9489 70.8544 30.1023 71.3714 30.1023ZM84.2621 25.5341V33H80.0945V19.9091H84.0575V22.3125H84.2024C84.4922 21.5114 84.9865 20.8835 85.6854 20.429C86.3842 19.9688 87.2166 19.7386 88.1825 19.7386C89.103 19.7386 89.9013 19.946 90.5774 20.3608C91.2592 20.7699 91.7876 21.3437 92.1626 22.0824C92.5433 22.8153 92.7308 23.6733 92.7251 24.6562V33H88.5575V25.4744C88.5632 24.7472 88.3786 24.179 88.0036 23.7699C87.6342 23.3608 87.12 23.1562 86.4609 23.1562C86.0234 23.1562 85.6371 23.2528 85.3018 23.446C84.9723 23.6335 84.7166 23.9034 84.5348 24.2557C84.3587 24.608 84.2678 25.0341 84.2621 25.5341ZM95.3054 33V19.9091H99.473V33H95.3054ZM97.3935 18.3835C96.8082 18.3835 96.3054 18.1903 95.8849 17.804C95.4645 17.4119 95.2543 16.9403 95.2543 16.3892C95.2543 15.8437 95.4645 15.3778 95.8849 14.9915C96.3054 14.5994 96.8082 14.4034 97.3935 14.4034C97.9844 14.4034 98.4872 14.5994 98.902 14.9915C99.3224 15.3778 99.5327 15.8437 99.5327 16.3892C99.5327 16.9403 99.3224 17.4119 98.902 17.804C98.4872 18.1903 97.9844 18.3835 97.3935 18.3835ZM108.245 33.2472C106.876 33.2472 105.694 32.9773 104.7 32.4375C103.711 31.892 102.95 31.1165 102.415 30.1108C101.887 29.0994 101.623 27.8977 101.623 26.5057C101.623 25.1534 101.89 23.9716 102.424 22.9602C102.958 21.9432 103.711 21.1534 104.683 20.5909C105.654 20.0227 106.799 19.7386 108.117 19.7386C109.049 19.7386 109.901 19.8835 110.674 20.1733C111.447 20.4631 112.114 20.892 112.677 21.4602C113.239 22.0284 113.677 22.7301 113.989 23.5653C114.302 24.3949 114.458 25.3466 114.458 26.4205V27.4602H103.08V25.0398H110.58C110.575 24.5966 110.469 24.2017 110.265 23.8551C110.06 23.5085 109.779 23.2386 109.421 23.0455C109.069 22.8466 108.663 22.7472 108.202 22.7472C107.737 22.7472 107.319 22.8523 106.95 23.0625C106.58 23.267 106.288 23.5483 106.072 23.9062C105.856 24.2585 105.742 24.6591 105.731 25.108V27.571C105.731 28.1051 105.836 28.5739 106.046 28.9773C106.256 29.375 106.555 29.6847 106.941 29.9062C107.327 30.1278 107.788 30.2386 108.322 30.2386C108.691 30.2386 109.026 30.1875 109.327 30.0852C109.629 29.983 109.887 29.8324 110.103 29.6335C110.319 29.4347 110.481 29.1903 110.589 28.9006L114.415 29.0114C114.256 29.8693 113.907 30.6165 113.367 31.2528C112.833 31.8835 112.131 32.375 111.262 32.7273C110.393 33.0739 109.387 33.2472 108.245 33.2472Z" fill="#0500FF" fill-opacity="0.75"/>
</svg>
