<svg width="17" height="17" viewBox="0 0 17 17" fill="none" xmlns="http://www.w3.org/2000/svg">
<path d="M1 1.09517V0.595175H0.5V1.09517H1ZM15.9457 1.09517H16.4457V0.595175H15.9457V1.09517ZM15.9457 16V16.5H16.4457V16H15.9457ZM1 16H0.5V16.5H1V16ZM1 1.59517H15.9457V0.595175H1V1.59517ZM15.4457 1.09517V16H16.4457V1.09517H15.4457ZM15.9457 15.5H1V16.5H15.9457V15.5ZM1.5 16V1.09517H0.5V16H1.5ZM0.705384 1.35894L8.26827 8.69306L8.96443 7.97518L1.40155 0.64106L0.705384 1.35894ZM15.6476 0.834811L8.2648 8.16893L8.96957 8.87837L16.3524 1.54425L15.6476 0.834811Z" fill="black"/>
</svg>
