<svg width="15" height="15" viewBox="0 0 15 15" fill="none" xmlns="http://www.w3.org/2000/svg">
<path fill-rule="evenodd" clip-rule="evenodd" d="M13.2955 0V4.96333L15 4.96333V7.02583L13.2955 7.02583V10.7269L15 10.7269V12.7894L13.2955 12.7894V15H11.5909L10.1032 12.7894L3.52273 12.7894V15H1.76136V12.7894L0 12.7894V10.7269L1.76136 10.7269V7.02583L0 7.02583V4.96333L1.76136 4.96333V0H3.46591L6.80988 4.96333L11.5625 4.96333V0H13.2955ZM3.52273 10.7269L8.71511 10.7269L6.2243 7.02583L3.52273 7.02583V10.7269ZM11.5625 10.7269H10.693L8.19946 7.02583L11.5625 7.02583V10.7269ZM3.66477 3.22266L4.83624 4.96333L3.52273 4.96333V3.22266H3.66477Z" fill="#868585"/>
</svg>
