<svg width="18" height="17" viewBox="0 0 18 17" fill="none" xmlns="http://www.w3.org/2000/svg">
<path d="M16 0H2C1.46957 0 0.96086 0.127933 0.585787 0.355656C0.210714 0.583379 0 0.892237 0 1.21429V15.7857C0 16.1078 0.210714 16.4166 0.585787 16.6443C0.96086 16.8721 1.46957 17 2 17H16C16.5304 17 17.0391 16.8721 17.4142 16.6443C17.7893 16.4166 18 16.1078 18 15.7857V1.21429C18 0.892237 17.7893 0.583379 17.4142 0.355656C17.0391 0.127933 16.5304 0 16 0ZM10 15.7857H8V14.5714H10V15.7857ZM2 13.3571V1.21429H16V13.3571H2Z" fill="#868585"/>
</svg>
